<svg xmlns="http://www.w3.org/2000/svg" xmlns:xlink="http://www.w3.org/1999/xlink" viewBox="0 0 4637.48 2192.29"><defs><style>.cls-1{fill:none;}.cls-2{isolation:isolate;}.cls-3{opacity:0.25;}.cls-261,.cls-3{mix-blend-mode:multiply;}.cls-4{clip-path:url(#clip-path);}.cls-5{fill:#fff;}.cls-6{fill:#fefefe;}.cls-7{fill:#fdfdfd;}.cls-8{fill:#fcfcfc;}.cls-9{fill:#fbfbfb;}.cls-10{fill:#fbfafa;}.cls-11{fill:#faf9f9;}.cls-12{fill:#f9f9f8;}.cls-13{fill:#f8f8f7;}.cls-14{fill:#f7f7f6;}.cls-15{fill:#f6f6f5;}.cls-16{fill:#f5f5f4;}.cls-17{fill:#f4f4f3;}.cls-18{fill:#f4f3f2;}.cls-19{fill:#f3f2f1;}.cls-20{fill:#f2f1f0;}.cls-21{fill:#f1f0ef;}.cls-22{fill:#f0efee;}.cls-23{fill:#efeeed;}.cls-24{fill:#eeeeec;}.cls-25{fill:#ededeb;}.cls-26{fill:#edecea;}.cls-27{fill:#ecebe9;}.cls-28{fill:#ebeae8;}.cls-29{fill:#eae9e7;}.cls-30{fill:#e9e8e6;}.cls-31{fill:#e8e7e5;}.cls-32{fill:#e7e6e4;}.cls-33{fill:#e6e5e3;}.cls-34{fill:#e6e4e2;}.cls-35{fill:#e5e3e1;}.cls-36{fill:#e4e3e0;}.cls-37{fill:#e3e2df;}.cls-38{fill:#e2e1de;}.cls-39{fill:#e1e0dd;}.cls-40{fill:#e0dfdc;}.cls-41{fill:#dfdedb;}.cls-42{fill:#dfddda;}.cls-43{fill:#dedcd9;}.cls-44{fill:#dddbd8;}.cls-45{fill:#dcdad7;}.cls-46{fill:#dbd9d6;}.cls-47{fill:#dad8d5;}.cls-48{fill:#d9d8d4;}.cls-49{fill:#d8d7d3;}.cls-50{fill:#d7d6d2;}.cls-51{fill:#d7d5d1;}.cls-52{fill:#d6d4d0;}.cls-53{fill:#d5d3cf;}.cls-54{fill:#d4d2ce;}.cls-55{fill:#d3d1cd;}.cls-56{fill:#d2d0cc;}.cls-57{fill:#d1cfcb;}.cls-58{fill:#d0ceca;}.cls-59{fill:#d0cdc9;}.cls-60{fill:#cfcdc8;}.cls-61{fill:#ceccc7;}.cls-62{fill:#cdcbc6;}.cls-63{fill:#cccac5;}.cls-64{fill:#cbc9c4;}.cls-65{fill:#cac8c3;}.cls-66{fill:#c9c7c2;}.cls-67{fill:#c9c6c1;}.cls-68{fill:#c8c5c0;}.cls-69{fill:#c7c4bf;}.cls-70{fill:#c6c3be;}.cls-71{fill:#c5c2bd;}.cls-72{fill:#c4c2bc;}.cls-73{fill:#c3c1bb;}.cls-74{fill:#c2c0ba;}.cls-75{fill:#c2bfb9;}.cls-76{fill:#c1beb8;}.cls-77{fill:#c0bdb7;}.cls-78{fill:#bfbcb6;}.cls-79{fill:#bebbb5;}.cls-80{fill:#bdbab4;}.cls-81{fill:#bcb9b3;}.cls-82{fill:#bbb8b2;}.cls-83{fill:#bbb7b1;}.cls-84{fill:#bab7b0;}.cls-85{fill:#b9b6af;}.cls-86{fill:#b8b5ae;}.cls-87{fill:#b7b4ad;}.cls-88{fill:#b6b3ac;}.cls-89{fill:#b5b2ab;}.cls-90{fill:#b4b1aa;}.cls-91{fill:#b3b0a9;}.cls-92{fill:#b3afa8;}.cls-93{fill:#b2aea7;}.cls-94{fill:#b1ada6;}.cls-95{fill:#b0aca5;}.cls-96{fill:#afaca4;}.cls-97{fill:#aeaba3;}.cls-98{fill:#adaaa2;}.cls-99{fill:#aca9a1;}.cls-100{fill:#aca8a0;}.cls-101{fill:#aba79f;}.cls-102{fill:#aaa69e;}.cls-103{fill:#a9a59d;}.cls-104{fill:#a8a49c;}.cls-105{fill:#a7a39b;}.cls-106{fill:#a6a29a;}.cls-107{fill:#a5a199;}.cls-108{fill:#a5a198;}.cls-109{fill:#a4a097;}.cls-110{fill:#a39f96;}.cls-111{fill:#a29e95;}.cls-112{fill:#a19d94;}.cls-113{fill:#a09c93;}.cls-114{fill:#9f9b92;}.cls-115{fill:#9e9a91;}.cls-116{fill:#9e9990;}.cls-117{fill:#9d988f;}.cls-118{fill:#9c978e;}.cls-119{fill:#9b968d;}.cls-120{fill:#9a968c;}.cls-121{fill:#99958b;}.cls-122{fill:#98948a;}.cls-123{fill:#979389;}.cls-124{fill:#979288;}.cls-125{fill:#969187;}.cls-126{fill:#959086;}.cls-127{fill:#948f85;}.cls-128{fill:#938e84;}.cls-129{fill:#928d83;}.cls-130{fill:#918c82;}.cls-131{fill:#908b81;}.cls-132{fill:#908b80;}.cls-133{fill:#8f8a7e;}.cls-134{fill:#8e897d;}.cls-135{fill:#8d887c;}.cls-136{fill:#8c877b;}.cls-137{fill:#8b867a;}.cls-138{fill:#8a8579;}.cls-139{fill:#898478;}.cls-140{fill:#888377;}.cls-141{fill:#888276;}.cls-142{fill:#878175;}.cls-143{fill:#868074;}.cls-144{fill:#857f73;}.cls-145{fill:#847f72;}.cls-146{fill:#837e71;}.cls-147{fill:#827d70;}.cls-148{fill:#817c6f;}.cls-149{fill:#817b6e;}.cls-150{fill:#807a6d;}.cls-151{fill:#7f796c;}.cls-152{fill:#7e786b;}.cls-153{fill:#7d776a;}.cls-154{fill:#7c7669;}.cls-155{fill:#7b7568;}.cls-156{fill:#7a7467;}.cls-157{fill:#7a7466;}.cls-158{fill:#797365;}.cls-159{fill:#787264;}.cls-160{fill:#777163;}.cls-161{fill:#767062;}.cls-162{fill:#756f61;}.cls-163{fill:#746e60;}.cls-164{fill:#736d5f;}.cls-165{fill:#736c5e;}.cls-166{fill:#726b5d;}.cls-167{fill:#716a5c;}.cls-168{fill:#70695b;}.cls-169{fill:#6f695a;}.cls-170{fill:#6e6859;}.cls-171{fill:#6d6758;}.cls-172{fill:#6c6657;}.cls-173{fill:#6c6556;}.cls-174{fill:#6b6455;}.cls-175{fill:#6a6354;}.cls-176{fill:#696253;}.cls-177{fill:#686152;}.cls-178{fill:#676051;}.cls-179{fill:#665f50;}.cls-180{fill:#655e4f;}.cls-181{fill:#645e4e;}.cls-182{fill:#645d4d;}.cls-183{fill:#635c4c;}.cls-184{fill:#625b4b;}.cls-185{fill:#615a4a;}.cls-186{fill:#605949;}.cls-187{fill:#5f5848;}.cls-188{fill:#5e5747;}.cls-189{fill:#5d5646;}.cls-190{fill:#5d5545;}.cls-191{fill:#5c5444;}.cls-192{fill:#5b5343;}.cls-193{fill:#5a5342;}.cls-194{fill:#595241;}.cls-195{fill:#585140;}.cls-196{fill:#57503f;}.cls-197{fill:#564f3e;}.cls-198{fill:#564e3d;}.cls-199{fill:#554d3c;}.cls-200{fill:#544c3b;}.cls-201{fill:#534b3a;}.cls-202{fill:#524a39;}.cls-203{fill:#514938;}.cls-204{fill:#504837;}.cls-205{fill:#4f4836;}.cls-206{fill:#4f4735;}.cls-207{fill:#4e4634;}.cls-208{fill:#4d4533;}.cls-209{fill:#4c4432;}.cls-210{fill:#4b4331;}.cls-211{fill:#4a4230;}.cls-212{fill:#49412f;}.cls-213{fill:#48402e;}.cls-214{fill:#483f2d;}.cls-215{fill:#473e2c;}.cls-216{fill:#463d2b;}.cls-217{fill:#453d2a;}.cls-218{fill:#443c29;}.cls-219{fill:#433b28;}.cls-220{fill:#423a27;}.cls-221{fill:#413926;}.cls-222{fill:#403825;}.cls-223{fill:#403724;}.cls-224{fill:#3f3623;}.cls-225{fill:#3e3522;}.cls-226{fill:#3d3421;}.cls-227{fill:#3c3320;}.cls-228{fill:#3b321f;}.cls-229{fill:#3a321e;}.cls-230{fill:#39311d;}.cls-231{fill:#39301c;}.cls-232{fill:#382f1b;}.cls-233{fill:#372e1a;}.cls-234{fill:#362d19;}.cls-235{fill:#352c18;}.cls-236{fill:#342b17;}.cls-237{fill:#332a16;}.cls-238{fill:#322915;}.cls-239{fill:#322814;}.cls-240{fill:#312713;}.cls-241{fill:#302712;}.cls-242{fill:#2f2611;}.cls-243{fill:#2e2510;}.cls-244{fill:#2d240f;}.cls-245{fill:#2c230e;}.cls-246{fill:#2b220d;}.cls-247{fill:#2b210c;}.cls-248{fill:#2a200b;}.cls-249{fill:#291f0a;}.cls-250{fill:#281e09;}.cls-251{fill:#271d08;}.cls-252{fill:#261c07;}.cls-253{fill:#251c06;}.cls-254{fill:#241b05;}.cls-255{fill:#241a04;}.cls-256{fill:#231903;}.cls-257{fill:#221802;}.cls-258{fill:#211701;}.cls-259{fill:#201600;}.cls-260{clip-path:url(#clip-path-2);}.cls-261{opacity:0.7;}.cls-262{fill:#e6e6e6;}.cls-263{fill:url(#Безымянный_градиент_33);}.cls-264{fill:#e9e9e9;}.cls-265{fill:url(#Безымянный_градиент_8);}.cls-266{fill:url(#Безымянный_градиент_18);}</style><clipPath id="clip-path" transform="translate(-181.26 -483.02)"><path class="cls-1" d="M649,2280.7c-4.4,63.23,893.86,177.19,2006.33,254.54s2017.86,88.82,2022.26,25.59-893.87-177.18-2006.34-254.54S653.38,2217.48,649,2280.7Z"/></clipPath><clipPath id="clip-path-2" transform="translate(-181.26 -483.02)"><path class="cls-1" d="M181.26,635.5l704-15.32,704-15.32h0q-1.14,305.83-2.27,611.69t-2.27,611.69h0l-700.18-61.5-700.18-61.5h0l-1.56-534.87Q182,902.94,181.26,635.5Z"/></clipPath><linearGradient id="Безымянный_градиент_33" x1="1535.42" y1="1396.21" x2="3423.03" y2="1396.21" gradientUnits="userSpaceOnUse"><stop offset="0" stop-color="#f0f0f0"/><stop offset="0.14" stop-color="#f1f1f1"/><stop offset="1" stop-color="#f5f5f5"/></linearGradient><linearGradient id="Безымянный_градиент_8" x1="2449.96" y1="2547.29" x2="2449.96" y2="2218.26" gradientTransform="matrix(-1, 0, 0, 1, 5000, 0)" gradientUnits="userSpaceOnUse"><stop offset="0" stop-color="#4d4d4d"/><stop offset="0" stop-color="#606060"/><stop offset="0" stop-color="#7f7f7f"/><stop offset="0.01" stop-color="#9b9b9b"/><stop offset="0.01" stop-color="#b1b1b1"/><stop offset="0.02" stop-color="#c2c2c2"/><stop offset="0.02" stop-color="#cdcdcd"/><stop offset="0.03" stop-color="#d4d4d4"/><stop offset="0.06" stop-color="#d6d6d6"/></linearGradient><linearGradient id="Безымянный_градиент_18" x1="2476.1" y1="2534.46" x2="2434.33" y2="2139.17" gradientTransform="matrix(-1, 0, 0, 1, 5000, 0)" gradientUnits="userSpaceOnUse"><stop offset="0" stop-color="#f5f5f5"/><stop offset="0.5" stop-color="#f1f1f1"/><stop offset="1" stop-color="#b3b3b3"/></linearGradient></defs><title>222</title><g class="cls-2"><g id="Capa_1" data-name="Capa 1"><g class="cls-3"><g class="cls-4"><rect class="cls-5" x="2548.53" y="401.61" width="229.5" height="4038.32" transform="translate(-117.67 4426.69) rotate(-86.02)"/><path class="cls-5" d="M1327.32,2313.05c-21.34,44.16,559.48,128.18,1297.31,187.67s1353.26,71.92,1374.61,27.76-559.48-128.18-1297.31-187.67S1348.67,2268.9,1327.32,2313.05Z" transform="translate(-181.26 -483.02)"/><path class="cls-6" d="M1332.56,2313.48c-21.26,44,557.29,127.68,1292.22,186.93s1348,71.64,1369.22,27.65-557.29-127.68-1292.22-186.93S1353.82,2269.49,1332.56,2313.48Z" transform="translate(-181.26 -483.02)"/><path class="cls-7" d="M1337.8,2313.9c-21.18,43.81,555.09,127.18,1287.13,186.2s1342.65,71.35,1363.83,27.54-555.09-127.18-1287.13-186.2S1359,2270.09,1337.8,2313.9Z" transform="translate(-181.26 -483.02)"/><ellipse class="cls-8" cx="2663.28" cy="2420.77" rx="81.81" ry="1324.91" transform="translate(-141.3 4401.76) rotate(-85.48)"/><path class="cls-9" d="M1348.28,2314.74c-21,43.47,550.7,126.18,1277,184.73s1332,70.79,1353,27.32-550.7-126.17-1277-184.73S1369.29,2271.28,1348.28,2314.74Z" transform="translate(-181.26 -483.02)"/><path class="cls-10" d="M1353.52,2315.17c-20.93,43.29,548.51,125.66,1271.87,184s1326.73,70.5,1347.65,27.21-548.51-125.67-1271.87-184S1374.45,2271.87,1353.52,2315.17Z" transform="translate(-181.26 -483.02)"/><path class="cls-11" d="M1358.76,2315.59c-20.85,43.12,546.31,125.17,1266.78,183.25S3947,2569.07,3967.8,2526,3421.49,2400.78,2701,2342.69,1379.6,2272.47,1358.76,2315.59Z" transform="translate(-181.26 -483.02)"/><path class="cls-12" d="M1364,2316c-20.76,42.95,544.12,124.66,1261.69,182.52s1316.11,69.94,1336.87,27S3418.44,2400.86,2700.87,2343,1384.76,2273.06,1364,2316Z" transform="translate(-181.26 -483.02)"/><path class="cls-13" d="M1369.24,2316.43c-20.68,42.78,541.92,124.17,1256.6,181.79s1310.81,69.66,1331.48,26.88-541.92-124.16-1256.6-181.78S1389.91,2273.66,1369.24,2316.43Z" transform="translate(-181.26 -483.02)"/><path class="cls-14" d="M1374.47,2316.86c-20.59,42.6,539.74,123.65,1251.53,181s1305.5,69.38,1326.09,26.78-539.73-123.66-1251.53-181S1395.07,2274.25,1374.47,2316.86Z" transform="translate(-181.26 -483.02)"/><ellipse class="cls-15" cx="2663.28" cy="2420.77" rx="79.53" ry="1288.1" transform="translate(-141.3 4401.76) rotate(-85.48)"/><path class="cls-16" d="M1385,2317.7c-20.42,42.25,535.35,122.65,1241.35,179.58s1294.88,68.81,1315.31,26.56-535.35-122.66-1241.35-179.58S1405.38,2275.45,1385,2317.7Z" transform="translate(-181.26 -483.02)"/><path class="cls-17" d="M1390.19,2318.12c-20.34,42.08,533.15,122.15,1236.26,178.84S3916,2565.5,3936.37,2523.41s-533.15-122.15-1236.26-178.84S1410.53,2276,1390.19,2318.12Z" transform="translate(-181.26 -483.02)"/><path class="cls-18" d="M1395.43,2318.55c-20.26,41.9,531,121.64,1231.17,178.1S3910.87,2564.9,3931.13,2523s-531-121.65-1231.17-178.1S1415.69,2276.64,1395.43,2318.55Z" transform="translate(-181.26 -483.02)"/><path class="cls-19" d="M1400.67,2319c-20.17,41.73,528.76,121.14,1226.08,177.37s1279,68,1299.14,26.23-528.76-121.15-1226.08-177.37S1420.84,2277.23,1400.67,2319Z" transform="translate(-181.26 -483.02)"/><path class="cls-20" d="M1405.91,2319.39C1385.82,2361,1932.48,2440,2626.9,2496s1273.66,67.69,1293.75,26.13-526.57-120.64-1221-176.64S1426,2277.83,1405.91,2319.39Z" transform="translate(-181.26 -483.02)"/><path class="cls-21" d="M1411.15,2319.81c-20,41.39,524.37,120.14,1215.91,175.9s1268.35,67.4,1288.35,26S3391,2401.59,2699.5,2345.83,1431.16,2278.42,1411.15,2319.81Z" transform="translate(-181.26 -483.02)"/><path class="cls-22" d="M1416.39,2320.24c-19.93,41.21,522.18,119.63,1210.82,175.15s1263,67.13,1283,25.91S3388,2401.66,2699.35,2346.14,1436.31,2279,1416.39,2320.24Z" transform="translate(-181.26 -483.02)"/><path class="cls-23" d="M1421.63,2320.66c-19.84,41,520,119.13,1205.73,174.42s1257.74,66.84,1277.58,25.8-520-119.14-1205.74-174.42S1441.46,2279.61,1421.63,2320.66Z" transform="translate(-181.26 -483.02)"/><path class="cls-24" d="M1426.86,2321.08c-19.75,40.87,517.8,118.63,1200.65,173.69s1252.43,66.56,1272.19,25.69-517.8-118.63-1200.65-173.69S1446.62,2280.21,1426.86,2321.08Z" transform="translate(-181.26 -483.02)"/><path class="cls-25" d="M1432.1,2321.5c-19.67,40.7,515.6,118.13,1195.57,172.95s1247.12,66.28,1266.79,25.59-515.6-118.13-1195.56-173S1451.78,2280.81,1432.1,2321.5Z" transform="translate(-181.26 -483.02)"/><path class="cls-26" d="M1437.34,2321.92c-19.59,40.53,513.41,117.63,1190.47,172.22s1241.82,66,1261.41,25.47S3375.81,2402,2698.75,2347.4,1456.93,2281.4,1437.34,2321.92Z" transform="translate(-181.26 -483.02)"/><path class="cls-27" d="M1442.58,2322.35c-19.5,40.35,511.21,117.12,1185.38,171.48s1236.52,65.71,1256,25.36-511.21-117.12-1185.39-171.48S1462.09,2282,1442.58,2322.35Z" transform="translate(-181.26 -483.02)"/><path class="cls-28" d="M1447.82,2322.77c-19.42,40.18,509,116.62,1180.3,170.75s1231.2,65.42,1250.62,25.25-509-116.62-1180.3-170.75S1467.24,2282.59,1447.82,2322.77Z" transform="translate(-181.26 -483.02)"/><path class="cls-29" d="M1453.06,2323.19c-19.34,40,506.82,116.12,1175.21,170s1225.89,65.15,1245.23,25.15-506.82-116.12-1175.21-170S1472.39,2283.19,1453.06,2323.19Z" transform="translate(-181.26 -483.02)"/><path class="cls-30" d="M1458.3,2323.62c-19.25,39.82,504.63,115.61,1170.12,169.27s1220.59,64.86,1239.84,25-504.63-115.61-1170.12-169.27S1477.55,2283.78,1458.3,2323.62Z" transform="translate(-181.26 -483.02)"/><path class="cls-31" d="M1463.54,2324c-19.17,39.65,502.43,115.11,1165,168.53S3843.85,2557.16,3863,2517.5,3360.59,2402.39,2698,2349,1482.71,2284.38,1463.54,2324Z" transform="translate(-181.26 -483.02)"/><path class="cls-32" d="M1468.78,2324.46c-19.09,39.48,500.24,114.61,1159.94,167.8s1210,64.3,1229.06,24.82-500.24-114.61-1159.94-167.8S1487.86,2285,1468.78,2324.46Z" transform="translate(-181.26 -483.02)"/><path class="cls-33" d="M1474,2324.88C1455,2364.19,1972.06,2439,2628.88,2492s1204.66,64,1223.67,24.7-498.05-114.1-1154.87-167.06S1493,2285.57,1474,2324.88Z" transform="translate(-181.26 -483.02)"/><path class="cls-34" d="M1479.26,2325.3c-18.92,39.14,495.85,113.61,1149.77,166.33s1199.36,63.74,1218.28,24.6-495.86-113.6-1149.78-166.32S1498.17,2286.17,1479.26,2325.3Z" transform="translate(-181.26 -483.02)"/><ellipse class="cls-35" cx="2663.28" cy="2420.77" rx="73.04" ry="1182.95" transform="translate(-141.3 4401.76) rotate(-85.48)"/><path class="cls-36" d="M1489.73,2326.15c-18.75,38.79,491.47,112.6,1139.6,164.86s1188.75,63.17,1207.5,24.38-491.47-112.6-1139.6-164.86S1508.49,2287.36,1489.73,2326.15Z" transform="translate(-181.26 -483.02)"/><path class="cls-37" d="M1495,2326.57c-18.66,38.62,489.27,112.1,1134.51,164.12s1183.44,62.89,1202.11,24.27-489.27-112.09-1134.51-164.11S1513.64,2288,1495,2326.57Z" transform="translate(-181.26 -483.02)"/><path class="cls-38" d="M1500.21,2327c-18.58,38.45,487.08,111.6,1129.43,163.39s1178.13,62.61,1196.71,24.16S3339.27,2403,2696.93,2351.16,1518.8,2288.55,1500.21,2327Z" transform="translate(-181.26 -483.02)"/><ellipse class="cls-39" cx="2663.28" cy="2420.77" rx="71.74" ry="1161.92" transform="translate(-141.3 4401.76) rotate(-85.48)"/><path class="cls-40" d="M1510.69,2327.84c-18.42,38.1,482.69,110.59,1119.25,161.91s1167.52,62.05,1185.93,23.95-482.69-110.59-1119.25-161.92S1529.1,2289.74,1510.69,2327.84Z" transform="translate(-181.26 -483.02)"/><path class="cls-41" d="M1515.93,2328.26c-18.33,37.93,480.49,110.09,1114.16,161.18s1162.21,61.76,1180.54,23.84-480.49-110.09-1114.16-161.18S1534.26,2290.34,1515.93,2328.26Z" transform="translate(-181.26 -483.02)"/><path class="cls-42" d="M1521.17,2328.68c-18.25,37.75,478.3,109.59,1109.07,160.44s1156.9,61.49,1175.15,23.73-478.3-109.58-1109.07-160.44S1539.42,2290.93,1521.17,2328.68Z" transform="translate(-181.26 -483.02)"/><path class="cls-43" d="M1526.41,2329.11c-18.17,37.57,476.1,109.07,1104,159.7S3782,2550,3800.15,2512.43s-476.1-109.08-1104-159.7S1544.57,2291.53,1526.41,2329.11Z" transform="translate(-181.26 -483.02)"/><path class="cls-44" d="M1531.65,2329.53c-18.08,37.4,473.91,108.57,1098.89,159s1146.29,60.91,1164.37,23.51S3321,2403.43,2696,2353,1549.73,2292.12,1531.65,2329.53Z" transform="translate(-181.26 -483.02)"/><path class="cls-45" d="M1536.88,2330c-18,37.23,471.72,108.08,1093.81,158.23s1141,60.64,1159,23.41S3318,2403.51,2695.86,2353.35,1554.88,2292.72,1536.88,2330Z" transform="translate(-181.26 -483.02)"/><path class="cls-46" d="M1542.12,2330.37c-17.91,37.06,469.53,107.58,1088.73,157.5s1135.67,60.35,1153.59,23.29-469.53-107.57-1088.72-157.49S1560,2293.31,1542.12,2330.37Z" transform="translate(-181.26 -483.02)"/><path class="cls-47" d="M1547.36,2330.79c-17.83,36.89,467.33,107.07,1083.64,156.77s1130.37,60.07,1148.2,23.18S3311.87,2403.67,2695.56,2354,1565.19,2293.91,1547.36,2330.79Z" transform="translate(-181.26 -483.02)"/><path class="cls-48" d="M1552.6,2331.22c-17.74,36.71,465.14,106.56,1078.55,156S3756.21,2547,3774,2510.32s-465.14-106.57-1078.55-156S1570.35,2294.5,1552.6,2331.22Z" transform="translate(-181.26 -483.02)"/><path class="cls-49" d="M1557.84,2331.64c-17.66,36.54,462.94,106.06,1073.46,155.29s1119.76,59.51,1137.42,23-462.94-106.07-1073.46-155.29S1575.5,2295.1,1557.84,2331.64Z" transform="translate(-181.26 -483.02)"/><path class="cls-50" d="M1563.08,2332.06c-17.58,36.37,460.75,105.56,1068.37,154.55s1114.45,59.23,1132,22.86-460.75-105.56-1068.37-154.55S1580.66,2295.7,1563.08,2332.06Z" transform="translate(-181.26 -483.02)"/><path class="cls-51" d="M1568.32,2332.48c-17.49,36.2,458.55,105.06,1063.28,153.82s1109.15,58.94,1126.64,22.75S3299.69,2404,2695,2355.24,1585.81,2296.29,1568.32,2332.48Z" transform="translate(-181.26 -483.02)"/><path class="cls-52" d="M1573.56,2332.91c-17.41,36,456.36,104.55,1058.19,153.08s1103.84,58.66,1121.25,22.64-456.36-104.56-1058.19-153.08S1591,2296.89,1573.56,2332.91Z" transform="translate(-181.26 -483.02)"/><path class="cls-53" d="M1578.8,2333.33c-17.33,35.85,454.16,104.05,1053.11,152.34s1098.53,58.38,1115.85,22.54-454.16-104.06-1053.11-152.35S1596.12,2297.48,1578.8,2333.33Z" transform="translate(-181.26 -483.02)"/><path class="cls-54" d="M1584,2333.75c-17.25,35.68,452,103.55,1048,151.61s1093.22,58.1,1110.46,22.43-452-103.55-1048-151.61S1601.28,2298.08,1584,2333.75Z" transform="translate(-181.26 -483.02)"/><path class="cls-55" d="M1589.28,2334.17c-17.17,35.5,449.77,103,1042.93,150.88s1087.91,57.81,1105.07,22.31-449.77-103.05-1042.93-150.87S1606.43,2298.67,1589.28,2334.17Z" transform="translate(-181.26 -483.02)"/><path class="cls-56" d="M1594.51,2334.6c-17.07,35.32,447.59,102.54,1037.85,150.13s1082.61,57.54,1099.69,22.21S3284.46,2404.4,2694.2,2356.8,1611.59,2299.27,1594.51,2334.6Z" transform="translate(-181.26 -483.02)"/><path class="cls-57" d="M1599.75,2335c-17,35.15,445.39,102,1032.76,149.4s1077.3,57.25,1094.3,22.1-445.39-102.05-1032.76-149.4S1616.75,2299.87,1599.75,2335Z" transform="translate(-181.26 -483.02)"/><path class="cls-58" d="M1605,2335.44c-16.91,35,443.2,101.54,1027.68,148.67s1072,57,1088.9,22-443.2-101.53-1027.67-148.66S1621.9,2300.46,1605,2335.44Z" transform="translate(-181.26 -483.02)"/><path class="cls-59" d="M1610.23,2335.86c-16.82,34.81,441,101,1022.58,147.93s1066.69,56.69,1083.52,21.88-441-101-1022.59-147.93S1627.05,2301.06,1610.23,2335.86Z" transform="translate(-181.26 -483.02)"/><ellipse class="cls-60" cx="2663.28" cy="2420.77" rx="64.93" ry="1051.51" transform="matrix(0.08, -1, 1, 0.08, -141.3, 4401.76)"/><path class="cls-61" d="M1620.71,2336.71c-16.66,34.46,436.61,100,1012.41,146.46s1056.07,56.12,1072.73,21.66-436.61-100-1012.41-146.46S1637.37,2302.25,1620.71,2336.71Z" transform="translate(-181.26 -483.02)"/><path class="cls-62" d="M1626,2337.13c-16.58,34.29,434.42,99.53,1007.32,145.72s1050.77,55.84,1067.34,21.56-434.42-99.53-1007.32-145.73S1642.52,2302.84,1626,2337.13Z" transform="translate(-181.26 -483.02)"/><path class="cls-63" d="M1631.19,2337.55c-16.49,34.12,432.22,99,1002.23,145S3678.88,2538.1,3695.37,2504s-432.22-99-1002.23-145S1647.68,2303.44,1631.19,2337.55Z" transform="translate(-181.26 -483.02)"/><path class="cls-64" d="M1636.43,2338c-16.41,33.94,430,98.52,997.14,144.25s1040.16,55.27,1056.56,21.33S3260.1,2405,2693,2359.31,1652.83,2304,1636.43,2338Z" transform="translate(-181.26 -483.02)"/><path class="cls-65" d="M1641.67,2338.4c-16.33,33.77,427.83,98,992.06,143.51s1034.84,55,1051.16,21.23-427.83-98-992.06-143.52S1658,2304.63,1641.67,2338.4Z" transform="translate(-181.26 -483.02)"/><path class="cls-66" d="M1646.9,2338.82c-16.23,33.6,425.65,97.52,987,142.78s1029.54,54.71,1045.78,21.12-425.65-97.53-987-142.78S1663.14,2305.23,1646.9,2338.82Z" transform="translate(-181.26 -483.02)"/><path class="cls-67" d="M1652.14,2339.24c-16.15,33.43,423.45,97,981.89,142s1024.23,54.44,1040.39,21-423.45-97-981.89-142S1668.3,2305.82,1652.14,2339.24Z" transform="translate(-181.26 -483.02)"/><path class="cls-68" d="M1657.38,2339.67c-16.07,33.24,421.26,96.51,976.8,141.3s1018.93,54.15,1035,20.9-421.26-96.51-976.8-141.3S1673.45,2306.42,1657.38,2339.67Z" transform="translate(-181.26 -483.02)"/><path class="cls-69" d="M1662.62,2340.09c-16,33.07,419.06,96,971.71,140.57s1013.62,53.87,1029.61,20.79-419.06-96-971.71-140.57S1678.61,2307,1662.62,2340.09Z" transform="translate(-181.26 -483.02)"/><path class="cls-70" d="M1667.86,2340.51c-15.9,32.9,416.87,95.51,966.62,139.83S3642.79,2533.93,3658.7,2501s-416.87-95.5-966.62-139.83S1683.76,2307.61,1667.86,2340.51Z" transform="translate(-181.26 -483.02)"/><path class="cls-71" d="M1673.1,2340.93c-15.82,32.73,414.67,95,961.54,139.1s1003,53.3,1018.82,20.57-414.67-95-961.54-139.09S1688.92,2308.2,1673.1,2340.93Z" transform="translate(-181.26 -483.02)"/><path class="cls-72" d="M1678.34,2341.36c-15.74,32.55,412.48,94.5,956.45,138.36s997.7,53,1013.43,20.46-412.48-94.5-956.44-138.36S1694.08,2308.8,1678.34,2341.36Z" transform="translate(-181.26 -483.02)"/><path class="cls-73" d="M1683.58,2341.78c-15.65,32.38,410.28,94,951.36,137.62s992.39,52.74,1008,20.36-410.28-94-951.36-137.63S1699.23,2309.39,1683.58,2341.78Z" transform="translate(-181.26 -483.02)"/><path class="cls-74" d="M1688.82,2342.2c-15.57,32.21,408.09,93.5,946.27,136.89s987.09,52.46,1002.65,20.25-408.09-93.5-946.27-136.89S1704.39,2310,1688.82,2342.2Z" transform="translate(-181.26 -483.02)"/><path class="cls-75" d="M1694.06,2342.62c-15.49,32,405.89,93,941.18,136.16S3617,2531,3632.51,2498.91s-405.9-93-941.19-136.15S1709.54,2310.59,1694.06,2342.62Z" transform="translate(-181.26 -483.02)"/><path class="cls-76" d="M1699.29,2343c-15.4,31.87,403.71,92.5,936.1,135.42s976.47,51.9,991.87,20-403.7-92.49-936.09-135.42S1714.7,2311.18,1699.29,2343Z" transform="translate(-181.26 -483.02)"/><path class="cls-77" d="M1704.53,2343.47c-15.31,31.69,401.51,92,931,134.68s971.17,51.61,986.48,19.92-401.5-92-931-134.68S1719.85,2311.78,1704.53,2343.47Z" transform="translate(-181.26 -483.02)"/><path class="cls-78" d="M1709.77,2343.89c-15.23,31.52,399.32,91.49,925.93,134s965.85,51.32,981.09,19.81-399.32-91.49-925.93-134S1725,2312.37,1709.77,2343.89Z" transform="translate(-181.26 -483.02)"/><path class="cls-79" d="M1715,2344.31c-15.15,31.35,397.12,91,920.84,133.21s960.55,51.05,975.7,19.71-397.12-91-920.84-133.22S1730.17,2313,1715,2344.31Z" transform="translate(-181.26 -483.02)"/><path class="cls-80" d="M1720.25,2344.73c-15.07,31.18,394.93,90.49,915.75,132.48s955.24,50.76,970.31,19.59-394.93-90.48-915.75-132.47S1735.32,2313.56,1720.25,2344.73Z" transform="translate(-181.26 -483.02)"/><path class="cls-81" d="M1725.49,2345.16c-15,31,392.73,90,910.66,131.74s949.93,50.48,964.92,19.48-392.73-90-910.66-131.74S1740.47,2314.16,1725.49,2345.16Z" transform="translate(-181.26 -483.02)"/><path class="cls-82" d="M1730.73,2345.58c-14.9,30.82,390.54,89.48,905.57,131s944.63,50.2,959.53,19.38-390.54-89.48-905.57-131S1745.63,2314.75,1730.73,2345.58Z" transform="translate(-181.26 -483.02)"/><ellipse class="cls-83" cx="2663.28" cy="2420.77" rx="57.46" ry="930.59" transform="translate(-141.3 4401.76) rotate(-85.48)"/><path class="cls-84" d="M1741.21,2346.42c-14.74,30.48,386.15,88.47,895.39,129.53s934,49.64,948.75,19.16-386.15-88.47-895.4-129.53S1755.94,2316,1741.21,2346.42Z" transform="translate(-181.26 -483.02)"/><path class="cls-85" d="M1746.45,2346.85c-14.65,30.3,384,88,890.31,128.79s928.7,49.36,943.36,19.05-384-88-890.32-128.8S1761.1,2316.54,1746.45,2346.85Z" transform="translate(-181.26 -483.02)"/><path class="cls-86" d="M1751.69,2347.27c-14.57,30.13,381.76,87.46,885.22,128.06s923.4,49.07,938,18.94-381.77-87.47-885.23-128.06S1766.25,2317.14,1751.69,2347.27Z" transform="translate(-181.26 -483.02)"/><path class="cls-87" d="M1756.92,2347.69c-14.48,30,379.57,87,880.14,127.32s918.09,48.79,932.58,18.83-379.57-87-880.14-127.32S1771.41,2317.73,1756.92,2347.69Z" transform="translate(-181.26 -483.02)"/><path class="cls-88" d="M1762.16,2348.11c-14.39,29.79,377.38,86.46,875.05,126.59s912.79,48.51,927.19,18.72S3187,2407,2689.35,2366.84,1776.56,2318.33,1762.16,2348.11Z" transform="translate(-181.26 -483.02)"/><path class="cls-89" d="M1767.4,2348.54c-14.31,29.61,375.19,85.95,870,125.85s907.48,48.22,921.8,18.61-375.18-86-870-125.85S1781.72,2318.92,1767.4,2348.54Z" transform="translate(-181.26 -483.02)"/><path class="cls-90" d="M1772.64,2349c-14.23,29.44,373,85.45,864.88,125.11s902.17,47.95,916.4,18.51-373-85.46-864.88-125.12S1786.87,2319.52,1772.64,2349Z" transform="translate(-181.26 -483.02)"/><ellipse class="cls-91" cx="2663.28" cy="2420.77" rx="54.86" ry="888.53" transform="matrix(0.08, -1, 1, 0.08, -141.3, 4401.76)"/><path class="cls-92" d="M1783.12,2349.8c-14.06,29.1,368.6,84.45,854.7,123.64s891.56,47.39,905.62,18.29-368.6-84.45-854.7-123.64S1797.18,2320.71,1783.12,2349.8Z" transform="translate(-181.26 -483.02)"/><path class="cls-93" d="M1788.36,2350.23c-14,28.92,366.4,83.94,849.61,122.9s886.25,47.1,900.23,18.18-366.4-83.95-849.61-122.91S1802.34,2321.3,1788.36,2350.23Z" transform="translate(-181.26 -483.02)"/><path class="cls-94" d="M1793.6,2350.65c-13.9,28.74,364.21,83.44,844.52,122.17s881,46.82,894.84,18.07-364.21-83.45-844.52-122.17S1807.49,2321.9,1793.6,2350.65Z" transform="translate(-181.26 -483.02)"/><path class="cls-95" d="M1798.84,2351.07c-13.81,28.58,362,82.94,839.43,121.43s875.64,46.54,889.45,18-362-82.95-839.43-121.44S1812.65,2322.5,1798.84,2351.07Z" transform="translate(-181.26 -483.02)"/><path class="cls-96" d="M1804.08,2351.49c-13.73,28.4,359.82,82.44,834.34,120.7s870.33,46.25,884.06,17.85-359.82-82.43-834.34-120.7S1817.8,2323.09,1804.08,2351.49Z" transform="translate(-181.26 -483.02)"/><path class="cls-97" d="M1809.31,2351.92c-13.64,28.22,357.63,81.93,829.27,120s865,46,878.66,17.74-357.62-81.94-829.25-120S1823,2323.69,1809.31,2351.92Z" transform="translate(-181.26 -483.02)"/><path class="cls-98" d="M1814.55,2352.34c-13.56,28,355.44,81.43,824.18,119.23s859.72,45.68,873.28,17.63-355.44-81.44-824.18-119.23S1828.11,2324.28,1814.55,2352.34Z" transform="translate(-181.26 -483.02)"/><path class="cls-99" d="M1819.79,2352.76c-13.48,27.88,353.24,80.93,819.09,118.49s854.41,45.41,867.89,17.53-353.24-80.94-819.09-118.5S1833.27,2324.88,1819.79,2352.76Z" transform="translate(-181.26 -483.02)"/><path class="cls-100" d="M1825,2353.18c-13.39,27.71,351,80.43,814,117.76s849.1,45.12,862.5,17.41-351.05-80.42-814-117.75S1838.42,2325.47,1825,2353.18Z" transform="translate(-181.26 -483.02)"/><path class="cls-101" d="M1830.27,2353.61c-13.31,27.53,348.85,79.92,808.91,117s843.8,44.84,857.11,17.31-348.85-79.92-808.91-117S1843.58,2326.07,1830.27,2353.61Z" transform="translate(-181.26 -483.02)"/><path class="cls-102" d="M1835.51,2354c-13.23,27.36,346.66,79.42,803.82,116.28s838.49,44.56,851.72,17.2-346.66-79.42-803.82-116.28S1848.74,2326.67,1835.51,2354Z" transform="translate(-181.26 -483.02)"/><path class="cls-103" d="M1840.75,2354.45c-13.14,27.19,344.46,78.92,798.74,115.55s833.18,44.27,846.32,17.09-344.46-78.92-798.73-115.55S1853.89,2327.26,1840.75,2354.45Z" transform="translate(-181.26 -483.02)"/><path class="cls-104" d="M1846,2354.87c-13.06,27,342.27,78.42,793.65,114.81s827.87,44,840.93,17-342.27-78.41-793.65-114.81S1859.05,2327.86,1846,2354.87Z" transform="translate(-181.26 -483.02)"/><path class="cls-105" d="M1851.23,2355.29c-13,26.85,340.07,77.92,788.56,114.08s822.57,43.71,835.54,16.87-340.07-77.91-788.56-114.07S1864.2,2328.45,1851.23,2355.29Z" transform="translate(-181.26 -483.02)"/><path class="cls-106" d="M1856.47,2355.72c-12.89,26.67,337.88,77.41,783.47,113.34s817.26,43.43,830.15,16.76-337.88-77.41-783.47-113.34S1869.36,2329.05,1856.47,2355.72Z" transform="translate(-181.26 -483.02)"/><path class="cls-107" d="M1861.71,2356.14c-12.81,26.5,335.68,76.91,778.38,112.6s812,43.15,824.77,16.66-335.69-76.91-778.39-112.6S1874.51,2329.65,1861.71,2356.14Z" transform="translate(-181.26 -483.02)"/><path class="cls-108" d="M1866.94,2356.56c-12.72,26.32,333.5,76.41,773.3,111.87s806.65,42.87,819.38,16.54-333.5-76.4-773.3-111.86S1879.67,2330.24,1866.94,2356.56Z" transform="translate(-181.26 -483.02)"/><path class="cls-109" d="M1872.18,2357c-12.64,26.15,331.3,75.91,768.21,111.14s801.35,42.58,814,16.43-331.3-75.9-768.21-111.13S1884.82,2330.84,1872.18,2357Z" transform="translate(-181.26 -483.02)"/><path class="cls-110" d="M1877.42,2357.41c-12.55,26,329.11,75.4,763.13,110.39s796,42.31,808.59,16.33S3120,2408.73,2686,2373.73,1890,2331.43,1877.42,2357.41Z" transform="translate(-181.26 -483.02)"/><path class="cls-111" d="M1882.66,2357.83c-12.47,25.8,326.91,74.9,758,109.66s790.73,42,803.2,16.22-326.91-74.9-758-109.66S1895.13,2332,1882.66,2357.83Z" transform="translate(-181.26 -483.02)"/><path class="cls-112" d="M1887.9,2358.25c-12.39,25.63,324.72,74.4,752.95,108.92s785.42,41.74,797.81,16.12-324.72-74.4-752.95-108.93S1900.29,2332.62,1887.9,2358.25Z" transform="translate(-181.26 -483.02)"/><path class="cls-113" d="M1893.14,2358.67c-12.3,25.46,322.52,73.9,747.86,108.19s780.12,41.46,792.42,16S3110.9,2409,2685.56,2374.68,1905.45,2333.22,1893.14,2358.67Z" transform="translate(-181.26 -483.02)"/><path class="cls-114" d="M1898.38,2359.1c-12.22,25.28,320.33,73.39,742.77,107.45s774.81,41.18,787,15.89-320.33-73.39-742.77-107.45S1910.6,2333.81,1898.38,2359.1Z" transform="translate(-181.26 -483.02)"/><path class="cls-115" d="M1903.62,2359.52c-12.14,25.11,318.13,72.89,737.68,106.72s769.5,40.89,781.64,15.78-318.13-72.89-737.68-106.72S1915.75,2334.41,1903.62,2359.52Z" transform="translate(-181.26 -483.02)"/><path class="cls-116" d="M1908.86,2359.94c-12.06,24.94,315.94,72.39,732.6,106s764.19,40.61,776.24,15.68-315.94-72.39-732.59-106S1920.91,2335,1908.86,2359.94Z" transform="translate(-181.26 -483.02)"/><path class="cls-117" d="M1914.1,2360.36c-12,24.77,313.74,71.89,727.5,105.25s758.89,40.33,770.86,15.56-313.74-71.88-727.5-105.24S1926.07,2335.6,1914.1,2360.36Z" transform="translate(-181.26 -483.02)"/><path class="cls-118" d="M1919.33,2360.79c-11.88,24.59,311.56,71.38,722.43,104.5s753.58,40.05,765.46,15.46-311.55-71.38-722.42-104.51S1931.22,2336.19,1919.33,2360.79Z" transform="translate(-181.26 -483.02)"/><path class="cls-119" d="M1924.57,2361.21c-11.8,24.42,309.36,70.88,717.34,103.77s748.27,39.77,760.08,15.35-309.36-70.88-717.34-103.77S1936.38,2336.79,1924.57,2361.21Z" transform="translate(-181.26 -483.02)"/><path class="cls-120" d="M1929.81,2361.63c-11.71,24.25,307.17,70.38,712.25,103s743,39.48,754.69,15.24-307.17-70.38-712.25-103S1941.53,2337.39,1929.81,2361.63Z" transform="translate(-181.26 -483.02)"/><path class="cls-121" d="M1935.05,2362.05c-11.63,24.07,305,69.88,707.16,102.3s737.66,39.2,749.3,15.13-305-69.87-707.16-102.3S1946.69,2338,1935.05,2362.05Z" transform="translate(-181.26 -483.02)"/><path class="cls-122" d="M1940.29,2362.47c-11.55,23.9,302.78,69.38,702.07,101.57s732.36,38.92,743.91,15-302.78-69.37-702.07-101.56S1951.84,2338.58,1940.29,2362.47Z" transform="translate(-181.26 -483.02)"/><path class="cls-123" d="M1945.53,2362.9c-11.47,23.72,300.58,68.86,697,100.83s727,38.63,738.51,14.91-300.58-68.87-697-100.83S1957,2339.17,1945.53,2362.9Z" transform="translate(-181.26 -483.02)"/><path class="cls-124" d="M1950.77,2363.32c-11.39,23.55,298.39,68.37,691.9,100.09s721.74,38.36,733.12,14.81-298.39-68.37-691.9-100.1S1962.15,2339.77,1950.77,2363.32Z" transform="translate(-181.26 -483.02)"/><path class="cls-125" d="M1956,2363.74c-11.3,23.38,296.19,67.86,686.81,99.36s716.43,38.07,727.73,14.69-296.19-67.86-686.81-99.35S1967.31,2340.36,1956,2363.74Z" transform="translate(-181.26 -483.02)"/><path class="cls-126" d="M1961.25,2364.16c-11.22,23.21,294,67.36,681.72,98.63s711.13,37.79,722.34,14.58-294-67.36-681.72-98.62S1972.46,2341,1961.25,2364.16Z" transform="translate(-181.26 -483.02)"/><path class="cls-127" d="M1966.49,2364.59c-11.14,23,291.8,66.85,676.63,97.88s705.82,37.51,717,14.48-291.8-66.86-676.63-97.89S1977.62,2341.56,1966.49,2364.59Z" transform="translate(-181.26 -483.02)"/><path class="cls-128" d="M1971.73,2365c-11,22.86,289.61,66.36,671.54,97.15s700.52,37.22,711.56,14.37-289.61-66.36-671.54-97.15S1982.77,2342.15,1971.73,2365Z" transform="translate(-181.26 -483.02)"/><path class="cls-129" d="M1977,2365.43c-11,22.69,287.41,65.85,666.46,96.41s695.2,36.95,706.17,14.26-287.42-65.85-666.47-96.41S1987.93,2342.75,1977,2365.43Z" transform="translate(-181.26 -483.02)"/><path class="cls-130" d="M1982.2,2365.86c-10.88,22.51,285.23,65.34,661.38,95.67s689.89,36.66,700.78,14.15S3059.13,2410.33,2683,2380,1993.08,2343.34,1982.2,2365.86Z" transform="translate(-181.26 -483.02)"/><path class="cls-131" d="M1987.44,2366.28c-10.79,22.34,283,64.84,656.29,94.94s684.59,36.38,695.39,14-283-64.85-656.29-94.94S1998.24,2343.94,1987.44,2366.28Z" transform="translate(-181.26 -483.02)"/><path class="cls-132" d="M1992.68,2366.7c-10.71,22.17,280.84,64.34,651.2,94.2s679.28,36.1,690,13.94-280.84-64.35-651.2-94.21S2003.4,2344.53,1992.68,2366.7Z" transform="translate(-181.26 -483.02)"/><path class="cls-133" d="M1997.92,2367.12c-10.63,22,278.64,63.84,646.11,93.47s674,35.82,684.61,13.82S3050,2410.57,2682.53,2381,2008.55,2345.13,1997.92,2367.12Z" transform="translate(-181.26 -483.02)"/><path class="cls-134" d="M2003.16,2367.55c-10.55,21.81,276.45,63.33,641,92.73s668.67,35.53,679.22,13.71-276.45-63.34-641-92.73S2013.71,2345.72,2003.16,2367.55Z" transform="translate(-181.26 -483.02)"/><path class="cls-135" d="M2008.4,2368c-10.47,21.64,274.25,62.83,635.94,92s663.36,35.26,673.82,13.61-274.25-62.83-635.93-92S2018.86,2346.32,2008.4,2368Z" transform="translate(-181.26 -483.02)"/><path class="cls-136" d="M2013.64,2368.39c-10.38,21.47,272.06,62.33,630.84,91.26s658.06,35,668.44,13.5-272.06-62.34-630.85-91.26S2024,2346.92,2013.64,2368.39Z" transform="translate(-181.26 -483.02)"/><path class="cls-137" d="M2018.88,2368.81c-10.3,21.3,269.86,61.83,625.76,90.53s652.75,34.68,663,13.38-269.86-61.83-625.76-90.52S2029.17,2347.51,2018.88,2368.81Z" transform="translate(-181.26 -483.02)"/><path class="cls-138" d="M2024.12,2369.24c-10.22,21.12,267.67,61.32,620.67,89.78s647.44,34.41,657.65,13.28-267.67-61.32-620.67-89.79S2034.33,2348.11,2024.12,2369.24Z" transform="translate(-181.26 -483.02)"/><path class="cls-139" d="M2029.35,2369.66c-10.12,21,265.48,60.82,615.59,89.05s642.14,34.12,652.27,13.17-265.48-60.83-615.59-89.05S2039.48,2348.7,2029.35,2369.66Z" transform="translate(-181.26 -483.02)"/><path class="cls-140" d="M2034.59,2370.08c-10,20.78,263.29,60.32,610.5,88.32s636.83,33.84,646.88,13.06-263.29-60.32-610.5-88.32S2044.64,2349.3,2034.59,2370.08Z" transform="translate(-181.26 -483.02)"/><path class="cls-141" d="M2039.83,2370.5c-10,20.61,261.09,59.82,605.42,87.58s631.52,33.56,641.48,13-261.09-59.82-605.41-87.59S2049.79,2349.89,2039.83,2370.5Z" transform="translate(-181.26 -483.02)"/><path class="cls-142" d="M2045.07,2370.92c-9.87,20.44,258.9,59.32,600.33,86.85s626.21,33.28,636.09,12.84-258.9-59.31-600.33-86.84S2055,2350.49,2045.07,2370.92Z" transform="translate(-181.26 -483.02)"/><path class="cls-143" d="M2050.31,2371.35c-9.79,20.26,256.7,58.81,595.24,86.11s620.91,33,630.7,12.73-256.7-58.81-595.24-86.11S2060.1,2351.08,2050.31,2371.35Z" transform="translate(-181.26 -483.02)"/><path class="cls-144" d="M2055.55,2371.77c-9.71,20.09,254.51,58.31,590.15,85.37s615.6,32.72,625.31,12.63-254.51-58.31-590.15-85.37S2065.26,2351.68,2055.55,2371.77Z" transform="translate(-181.26 -483.02)"/><path class="cls-145" d="M2060.79,2372.19c-9.63,19.92,252.31,57.81,585.06,84.64s610.3,32.43,619.92,12.51-252.31-57.8-585.06-84.63S2070.42,2352.28,2060.79,2372.19Z" transform="translate(-181.26 -483.02)"/><path class="cls-146" d="M2066,2372.61c-9.54,19.75,250.12,57.31,580,83.9s605,32.15,614.53,12.41-250.12-57.3-580-83.9S2075.57,2352.87,2066,2372.61Z" transform="translate(-181.26 -483.02)"/><path class="cls-147" d="M2071.27,2373c-9.46,19.57,247.92,56.81,574.88,83.17s599.68,31.87,609.14,12.3-247.92-56.8-574.88-83.17S2080.73,2353.47,2071.27,2373Z" transform="translate(-181.26 -483.02)"/><path class="cls-148" d="M2076.51,2373.46c-9.38,19.39,245.73,56.3,569.79,82.43s594.38,31.58,603.75,12.19-245.73-56.3-569.79-82.43S2085.88,2354.06,2076.51,2373.46Z" transform="translate(-181.26 -483.02)"/><path class="cls-149" d="M2081.75,2373.88c-9.29,19.22,243.53,55.8,564.71,81.69s589.06,31.31,598.36,12.09-243.54-55.8-564.71-81.7S2091,2354.66,2081.75,2373.88Z" transform="translate(-181.26 -483.02)"/><path class="cls-150" d="M2087,2374.3c-9.2,19,241.35,55.3,559.63,81s583.76,31,593,12-241.35-55.29-559.63-80.95S2096.19,2355.25,2087,2374.3Z" transform="translate(-181.26 -483.02)"/><path class="cls-151" d="M2092.22,2374.73c-9.12,18.87,239.15,54.79,554.54,80.22s578.45,30.74,587.58,11.86-239.15-54.79-554.54-80.22S2101.35,2355.85,2092.22,2374.73Z" transform="translate(-181.26 -483.02)"/><path class="cls-152" d="M2097.46,2375.15c-9,18.7,237,54.29,549.45,79.48s573.15,30.46,582.19,11.76-237-54.29-549.45-79.48S2106.5,2356.45,2097.46,2375.15Z" transform="translate(-181.26 -483.02)"/><path class="cls-153" d="M2102.7,2375.57c-8.95,18.53,234.76,53.79,544.36,78.75s567.84,30.18,576.8,11.65-234.76-53.79-544.36-78.75S2111.66,2357,2102.7,2375.57Z" transform="translate(-181.26 -483.02)"/><path class="cls-154" d="M2107.94,2376c-8.87,18.36,232.57,53.29,539.28,78s562.53,29.89,571.4,11.53-232.57-53.28-539.27-78S2116.81,2357.64,2107.94,2376Z" transform="translate(-181.26 -483.02)"/><path class="cls-155" d="M2113.18,2376.41c-8.79,18.19,230.38,52.79,534.19,77.28s557.22,29.61,566,11.43-230.37-52.78-534.19-77.27S2122,2358.23,2113.18,2376.41Z" transform="translate(-181.26 -483.02)"/><path class="cls-156" d="M2118.42,2376.84c-8.71,18,228.18,52.28,529.1,76.54s551.92,29.33,560.62,11.32S2980,2412.42,2679,2388.16,2127.12,2358.83,2118.42,2376.84Z" transform="translate(-181.26 -483.02)"/><path class="cls-157" d="M2123.66,2377.26c-8.62,17.84,226,51.78,524,75.8s546.61,29.05,555.23,11.22-226-51.78-524-75.81S2132.28,2359.42,2123.66,2377.26Z" transform="translate(-181.26 -483.02)"/><path class="cls-158" d="M2128.9,2377.68c-8.54,17.67,223.79,51.27,518.92,75.07s541.3,28.77,549.84,11.1-223.79-51.27-518.92-75.06S2137.44,2360,2128.9,2377.68Z" transform="translate(-181.26 -483.02)"/><path class="cls-159" d="M2134.14,2378.1c-8.46,17.49,221.59,50.78,513.83,74.34s536,28.48,544.45,11-221.59-50.77-513.83-74.33S2142.59,2360.62,2134.14,2378.1Z" transform="translate(-181.26 -483.02)"/><path class="cls-160" d="M2139.37,2378.53c-8.37,17.32,219.41,50.26,508.75,73.59s530.69,28.21,539.07,10.89-219.41-50.27-508.75-73.6S2147.75,2361.21,2139.37,2378.53Z" transform="translate(-181.26 -483.02)"/><path class="cls-161" d="M2144.62,2379c-8.29,17.14,217.2,49.76,503.66,72.86s525.38,27.92,533.67,10.78-217.21-49.77-503.66-72.86S2152.9,2361.8,2144.62,2379Z" transform="translate(-181.26 -483.02)"/><path class="cls-162" d="M2149.85,2379.37c-8.2,17,215,49.26,498.58,72.13s520.08,27.64,528.28,10.67-215-49.27-498.58-72.13S2158.06,2362.4,2149.85,2379.37Z" transform="translate(-181.26 -483.02)"/><path class="cls-163" d="M2155.09,2379.79c-8.12,16.8,212.82,48.76,493.49,71.39s514.77,27.36,522.89,10.56S2958.65,2413,2678,2390.35,2163.21,2363,2155.09,2379.79Z" transform="translate(-181.26 -483.02)"/><path class="cls-164" d="M2160.33,2380.22c-8,16.62,210.63,48.25,488.4,70.65s509.46,27.07,517.5,10.45-210.63-48.26-488.4-70.65S2168.37,2363.59,2160.33,2380.22Z" transform="translate(-181.26 -483.02)"/><path class="cls-165" d="M2165.57,2380.64c-8,16.45,208.44,47.75,483.31,69.91S3153,2477.35,3161,2460.9s-208.43-47.76-483.31-69.92S2173.52,2364.19,2165.57,2380.64Z" transform="translate(-181.26 -483.02)"/><path class="cls-166" d="M2170.81,2381.06c-7.87,16.28,206.24,47.25,478.22,69.18s498.85,26.51,506.72,10.24-206.24-47.26-478.22-69.19S2178.68,2364.78,2170.81,2381.06Z" transform="translate(-181.26 -483.02)"/><path class="cls-167" d="M2176.05,2381.49c-7.78,16.1,204,46.74,473.14,68.44s493.54,26.23,501.32,10.12-204-46.75-473.13-68.44S2183.83,2365.38,2176.05,2381.49Z" transform="translate(-181.26 -483.02)"/><path class="cls-168" d="M2181.29,2381.91c-7.7,15.93,201.85,46.24,468.05,67.71s488.23,25.94,495.93,10-201.85-46.25-468.05-67.71S2189,2366,2181.29,2381.91Z" transform="translate(-181.26 -483.02)"/><path class="cls-169" d="M2186.53,2382.33c-7.62,15.76,199.66,45.74,463,67s482.93,25.67,490.55,9.91-199.66-45.75-463-67S2194.14,2366.57,2186.53,2382.33Z" transform="translate(-181.26 -483.02)"/><path class="cls-170" d="M2191.77,2382.75c-7.54,15.59,197.46,45.24,457.87,66.24s477.62,25.38,485.15,9.79-197.46-45.24-457.87-66.23S2199.3,2367.17,2191.77,2382.75Z" transform="translate(-181.26 -483.02)"/><path class="cls-171" d="M2197,2383.17c-7.45,15.42,195.26,44.74,452.78,65.5s472.31,25.11,479.77,9.69-195.27-44.74-452.79-65.5S2204.45,2367.76,2197,2383.17Z" transform="translate(-181.26 -483.02)"/><path class="cls-172" d="M2202.24,2383.6c-7.36,15.23,193.08,44.23,447.7,64.76s467,24.82,474.38,9.58-193.08-44.24-447.7-64.76S2209.61,2368.36,2202.24,2383.6Z" transform="translate(-181.26 -483.02)"/><path class="cls-173" d="M2207.48,2384c-7.28,15.07,190.88,43.73,442.61,64s461.7,24.53,469,9.47-190.88-43.74-442.61-64S2214.76,2369,2207.48,2384Z" transform="translate(-181.26 -483.02)"/><path class="cls-174" d="M2212.72,2384.44c-7.2,14.89,188.69,43.23,437.53,63.29s456.39,24.26,463.59,9.37-188.69-43.23-437.53-63.3S2219.92,2369.55,2212.72,2384.44Z" transform="translate(-181.26 -483.02)"/><path class="cls-175" d="M2218,2384.86c-7.11,14.72,186.49,42.73,432.44,62.56s451.09,24,458.2,9.25-186.49-42.72-432.44-62.56S2225.08,2370.14,2218,2384.86Z" transform="translate(-181.26 -483.02)"/><path class="cls-176" d="M2223.2,2385.29c-7,14.54,184.3,42.22,427.35,61.82s445.78,23.68,452.81,9.14S2919.06,2414,2676,2394.43,2230.23,2370.74,2223.2,2385.29Z" transform="translate(-181.26 -483.02)"/><path class="cls-177" d="M2228.44,2385.71c-7,14.37,182.1,41.72,422.26,61.08s440.47,23.41,447.42,9-182.11-41.73-422.26-61.09S2235.39,2371.33,2228.44,2385.71Z" transform="translate(-181.26 -483.02)"/><path class="cls-178" d="M2233.68,2386.13c-6.87,14.2,179.91,41.22,417.17,60.35s435.17,23.13,442,8.93-179.91-41.22-417.17-60.35S2240.54,2371.93,2233.68,2386.13Z" transform="translate(-181.26 -483.02)"/><path class="cls-179" d="M2238.91,2386.55c-6.77,14,177.73,40.72,412.09,59.62s429.86,22.84,436.64,8.81-177.71-40.71-412.08-59.61S2245.7,2372.53,2238.91,2386.55Z" transform="translate(-181.26 -483.02)"/><path class="cls-180" d="M2244.16,2387c-6.7,13.85,175.52,40.21,407,58.87s424.56,22.56,431.25,8.71-175.52-40.21-407-58.88S2250.85,2373.12,2244.16,2387Z" transform="translate(-181.26 -483.02)"/><path class="cls-181" d="M2249.4,2387.4c-6.62,13.68,173.33,39.71,401.91,58.14s419.24,22.28,425.86,8.6-173.33-39.71-401.92-58.14S2256,2373.72,2249.4,2387.4Z" transform="translate(-181.26 -483.02)"/><path class="cls-182" d="M2254.63,2387.82c-6.52,13.51,171.14,39.21,396.83,57.41s413.94,22,420.47,8.49-171.14-39.21-396.83-57.41S2261.16,2374.31,2254.63,2387.82Z" transform="translate(-181.26 -483.02)"/><path class="cls-183" d="M2259.87,2388.24c-6.45,13.34,168.94,38.71,391.74,56.67s408.63,21.72,415.08,8.38-169-38.7-391.74-56.67S2266.32,2374.91,2259.87,2388.24Z" transform="translate(-181.26 -483.02)"/><path class="cls-184" d="M2265.11,2388.67c-6.36,13.15,166.75,38.2,386.65,55.93s403.33,21.43,409.69,8.27-166.75-38.2-386.65-55.93S2271.47,2375.5,2265.11,2388.67Z" transform="translate(-181.26 -483.02)"/><path class="cls-185" d="M2270.35,2389.09c-6.28,13,164.55,37.7,381.56,55.19s398,21.16,404.3,8.17-164.55-37.7-381.56-55.2S2276.63,2376.1,2270.35,2389.09Z" transform="translate(-181.26 -483.02)"/><path class="cls-186" d="M2275.59,2389.51c-6.2,12.81,162.36,37.2,376.48,54.46s392.71,20.87,398.9,8.06-162.36-37.2-376.47-54.46S2281.79,2376.69,2275.59,2389.51Z" transform="translate(-181.26 -483.02)"/><path class="cls-187" d="M2280.83,2389.93c-6.11,12.64,160.17,36.7,371.39,53.73s387.4,20.58,393.51,7.94-160.16-36.69-371.38-53.72S2286.94,2377.29,2280.83,2389.93Z" transform="translate(-181.26 -483.02)"/><path class="cls-188" d="M2286.07,2390.35c-6,12.47,158,36.2,366.3,53s382.1,20.3,388.12,7.83-158-36.19-366.3-53S2292.1,2377.89,2286.07,2390.35Z" transform="translate(-181.26 -483.02)"/><path class="cls-189" d="M2291.31,2390.78c-5.95,12.29,155.77,35.69,361.21,52.25s376.79,20,382.73,7.73-155.77-35.69-361.21-52.25S2297.25,2378.48,2291.31,2390.78Z" transform="translate(-181.26 -483.02)"/><path class="cls-190" d="M2296.55,2391.2c-5.86,12.12,153.58,35.19,356.12,51.52s371.49,19.74,377.34,7.62-153.58-35.19-356.12-51.52S2302.41,2379.08,2296.55,2391.2Z" transform="translate(-181.26 -483.02)"/><path class="cls-191" d="M2301.79,2391.62c-5.78,12,151.38,34.69,351,50.78s366.18,19.46,371.95,7.51-151.38-34.68-351-50.78S2307.56,2379.67,2301.79,2391.62Z" transform="translate(-181.26 -483.02)"/><path class="cls-192" d="M2307,2392c-5.7,11.78,149.19,34.19,345.95,50.05s360.86,19.18,366.56,7.4-149.2-34.18-345.95-50S2312.72,2380.27,2307,2392Z" transform="translate(-181.26 -483.02)"/><path class="cls-193" d="M2312.26,2392.47c-5.61,11.6,147,33.68,340.87,49.31s355.56,18.89,361.17,7.29-147-33.68-340.87-49.31S2317.87,2380.86,2312.26,2392.47Z" transform="translate(-181.26 -483.02)"/><path class="cls-194" d="M2317.5,2392.89c-5.52,11.43,144.81,33.18,335.78,48.57s350.25,18.62,355.78,7.19-144.81-33.18-335.78-48.58S2323,2381.46,2317.5,2392.89Z" transform="translate(-181.26 -483.02)"/><path class="cls-195" d="M2322.74,2393.31c-5.44,11.26,142.61,32.68,330.69,47.84s345,18.33,350.39,7.08-142.61-32.68-330.69-47.84S2328.18,2382.06,2322.74,2393.31Z" transform="translate(-181.26 -483.02)"/><path class="cls-196" d="M2328,2393.73c-5.35,11.09,140.42,32.18,325.6,47.11s339.64,18,345,7-140.42-32.17-325.6-47.1S2333.34,2382.65,2328,2393.73Z" transform="translate(-181.26 -483.02)"/><path class="cls-197" d="M2333.22,2394.16c-5.27,10.91,138.23,31.66,320.51,46.36s334.34,17.77,339.61,6.86-138.22-31.67-320.51-46.36S2338.49,2383.25,2333.22,2394.16Z" transform="translate(-181.26 -483.02)"/><path class="cls-198" d="M2338.46,2394.58c-5.19,10.74,136,31.16,315.42,45.63s329,17.48,334.22,6.75-136-31.17-315.42-45.63S2343.65,2383.84,2338.46,2394.58Z" transform="translate(-181.26 -483.02)"/><path class="cls-199" d="M2343.7,2395c-5.11,10.56,133.83,30.67,310.34,44.9s323.72,17.2,328.82,6.64-133.83-30.67-310.33-44.9S2348.8,2384.44,2343.7,2395Z" transform="translate(-181.26 -483.02)"/><path class="cls-200" d="M2348.94,2395.42c-5,10.39,131.64,30.16,305.25,44.16s318.41,16.92,323.43,6.53S2846,2416,2672.38,2402,2354,2385,2348.94,2395.42Z" transform="translate(-181.26 -483.02)"/><path class="cls-201" d="M2354.18,2395.85c-4.94,10.21,129.45,29.66,300.16,43.42s313.11,16.64,318,6.42-129.45-29.66-300.16-43.42S2359.11,2385.63,2354.18,2395.85Z" transform="translate(-181.26 -483.02)"/><path class="cls-202" d="M2359.41,2396.27c-4.85,10,127.26,29.15,295.08,42.69s307.8,16.35,312.66,6.31-127.26-29.16-295.08-42.69S2364.27,2386.23,2359.41,2396.27Z" transform="translate(-181.26 -483.02)"/><path class="cls-203" d="M2364.65,2396.69c-4.77,9.87,125.06,28.65,290,41.95s302.5,16.08,307.27,6.21-125.06-28.66-290-41.95S2369.43,2386.82,2364.65,2396.69Z" transform="translate(-181.26 -483.02)"/><path class="cls-204" d="M2369.89,2397.11c-4.68,9.7,122.87,28.15,284.9,41.22s297.19,15.79,301.88,6.09-122.87-28.15-284.9-41.21S2374.58,2387.42,2369.89,2397.11Z" transform="translate(-181.26 -483.02)"/><path class="cls-205" d="M2375.13,2397.54c-4.6,9.52,120.67,27.64,279.81,40.48s291.88,15.51,296.49,6-120.67-27.65-279.81-40.48S2379.74,2388,2375.13,2397.54Z" transform="translate(-181.26 -483.02)"/><path class="cls-206" d="M2380.37,2398c-4.52,9.35,118.48,27.14,274.72,39.74s286.58,15.23,291.1,5.88-118.48-27.15-274.72-39.74S2384.89,2388.61,2380.37,2398Z" transform="translate(-181.26 -483.02)"/><path class="cls-207" d="M2385.61,2398.38c-4.44,9.18,116.29,26.64,269.64,39s281.26,15,285.7,5.77-116.29-26.65-269.64-39S2390.05,2389.2,2385.61,2398.38Z" transform="translate(-181.26 -483.02)"/><path class="cls-208" d="M2390.85,2398.8c-4.35,9,114.09,26.14,264.55,38.27s276,14.67,280.31,5.66-114.09-26.14-264.55-38.27S2395.2,2389.8,2390.85,2398.8Z" transform="translate(-181.26 -483.02)"/><path class="cls-209" d="M2396.09,2399.23c-4.27,8.83,111.9,25.63,259.46,37.53s270.65,14.38,274.92,5.55-111.9-25.64-259.46-37.53S2400.36,2390.39,2396.09,2399.23Z" transform="translate(-181.26 -483.02)"/><path class="cls-210" d="M2401.33,2399.65c-4.19,8.66,109.7,25.13,254.37,36.8s265.35,14.1,269.53,5.44-109.7-25.14-254.37-36.8S2405.51,2391,2401.33,2399.65Z" transform="translate(-181.26 -483.02)"/><path class="cls-211" d="M2406.57,2400.07c-4.11,8.49,107.5,24.63,249.28,36.06s260,13.82,264.14,5.34-107.5-24.63-249.28-36.07S2410.67,2391.59,2406.57,2400.07Z" transform="translate(-181.26 -483.02)"/><path class="cls-212" d="M2411.8,2400.49c-4,8.32,105.32,24.13,244.2,35.33s254.74,13.54,258.76,5.22-105.32-24.13-244.2-35.32S2415.82,2392.18,2411.8,2400.49Z" transform="translate(-181.26 -483.02)"/><path class="cls-213" d="M2417.05,2400.91c-3.94,8.14,103.12,23.63,239.11,34.59s249.42,13.26,253.36,5.12S2806.39,2417,2670.4,2406,2421,2392.78,2417.05,2400.91Z" transform="translate(-181.26 -483.02)"/><path class="cls-214" d="M2422.28,2401.34c-3.85,8,100.93,23.12,234,33.85s244.12,13,248,5-100.93-23.13-234-33.85S2426.13,2393.37,2422.28,2401.34Z" transform="translate(-181.26 -483.02)"/><path class="cls-215" d="M2427.52,2401.76c-3.76,7.79,98.73,22.62,228.94,33.12s238.81,12.69,242.58,4.9-98.73-22.62-228.94-33.12S2431.29,2394,2427.52,2401.76Z" transform="translate(-181.26 -483.02)"/><path class="cls-216" d="M2432.76,2402.18c-3.68,7.62,96.54,22.12,223.85,32.39s233.5,12.4,237.19,4.78S2797.26,2417.24,2670,2407,2436.45,2394.56,2432.76,2402.18Z" transform="translate(-181.26 -483.02)"/><path class="cls-217" d="M2438,2402.6c-3.6,7.45,94.35,21.62,218.76,31.65s228.2,12.13,231.8,4.68-94.34-21.61-218.76-31.64S2441.6,2395.16,2438,2402.6Z" transform="translate(-181.26 -483.02)"/><path class="cls-218" d="M2443.24,2403c-3.52,7.27,92.15,21.11,213.67,30.91s222.89,11.84,226.41,4.57-92.15-21.11-213.67-30.91S2446.76,2395.75,2443.24,2403Z" transform="translate(-181.26 -483.02)"/><path class="cls-219" d="M2448.48,2403.45c-3.43,7.1,90,20.61,208.59,30.17s217.58,11.57,221,4.47-89.95-20.61-208.58-30.18S2451.91,2396.35,2448.48,2403.45Z" transform="translate(-181.26 -483.02)"/><path class="cls-220" d="M2453.72,2403.87c-3.35,6.93,87.76,20.11,203.5,29.44s212.27,11.28,215.62,4.35-87.76-20.1-203.5-29.44S2457.07,2397,2453.72,2403.87Z" transform="translate(-181.26 -483.02)"/><path class="cls-221" d="M2459,2404.29c-3.26,6.76,85.57,19.61,198.41,28.71s207,11,210.23,4.24-85.56-19.6-198.41-28.7S2462.22,2397.54,2459,2404.29Z" transform="translate(-181.26 -483.02)"/><path class="cls-222" d="M2464.2,2404.72c-3.19,6.58,83.37,19.1,193.32,28s201.66,10.72,204.84,4.14-83.37-19.1-193.32-28S2467.38,2398.14,2464.2,2404.72Z" transform="translate(-181.26 -483.02)"/><path class="cls-223" d="M2469.43,2405.14c-3.09,6.41,81.18,18.6,188.24,27.23s196.36,10.43,199.46,4-81.18-18.6-188.24-27.23S2472.53,2398.73,2469.43,2405.14Z" transform="translate(-181.26 -483.02)"/><path class="cls-224" d="M2474.68,2405.56c-3,6.24,79,18.1,183.14,26.5s191,10.15,194.07,3.91-79-18.09-183.15-26.49S2477.69,2399.33,2474.68,2405.56Z" transform="translate(-181.26 -483.02)"/><path class="cls-225" d="M2479.91,2406c-2.93,6.07,76.79,17.6,178.06,25.76s185.75,9.87,188.68,3.81-76.79-17.59-178.06-25.76S2482.84,2399.92,2479.91,2406Z" transform="translate(-181.26 -483.02)"/><path class="cls-226" d="M2485.15,2406.41c-2.84,5.88,74.6,17.09,173,25s180.43,9.59,183.28,3.7-74.6-17.09-173-25S2488,2400.52,2485.15,2406.41Z" transform="translate(-181.26 -483.02)"/><path class="cls-227" d="M2490.39,2406.83c-2.76,5.71,72.41,16.59,167.89,24.29s175.13,9.3,177.89,3.59-72.4-16.59-167.89-24.29S2493.15,2401.11,2490.39,2406.83Z" transform="translate(-181.26 -483.02)"/><path class="cls-228" d="M2495.63,2407.25c-2.68,5.54,70.21,16.09,162.8,23.55s169.82,9,172.5,3.49-70.21-16.09-162.8-23.56S2498.31,2401.71,2495.63,2407.25Z" transform="translate(-181.26 -483.02)"/><path class="cls-229" d="M2500.87,2407.67c-2.6,5.37,68,15.59,157.71,22.82s164.52,8.74,167.11,3.37-68-15.58-157.71-22.81S2503.46,2402.3,2500.87,2407.67Z" transform="translate(-181.26 -483.02)"/><path class="cls-230" d="M2506.11,2408.1c-2.51,5.19,65.82,15.08,152.62,22.07s159.21,8.47,161.72,3.27-65.82-15.08-152.62-22.08S2508.62,2402.9,2506.11,2408.1Z" transform="translate(-181.26 -483.02)"/><path class="cls-231" d="M2511.35,2408.52c-2.43,5,63.63,14.58,147.54,21.34s153.9,8.18,156.32,3.16-63.62-14.58-147.53-21.34S2513.77,2403.49,2511.35,2408.52Z" transform="translate(-181.26 -483.02)"/><path class="cls-232" d="M2516.59,2408.94c-2.35,4.85,61.43,14.08,142.45,20.61s148.59,7.9,150.93,3-61.43-14.08-142.45-20.61S2518.93,2404.09,2516.59,2408.94Z" transform="translate(-181.26 -483.02)"/><path class="cls-233" d="M2521.83,2409.36c-2.26,4.68,59.24,13.58,137.36,19.87s143.28,7.62,145.55,2.94-59.24-13.57-137.37-19.87S2524.09,2404.69,2521.83,2409.36Z" transform="translate(-181.26 -483.02)"/><path class="cls-234" d="M2527.07,2409.79c-2.18,4.5,57,13.07,132.27,19.13s138,7.33,140.15,2.83-57-13.07-132.27-19.13S2529.24,2405.28,2527.07,2409.79Z" transform="translate(-181.26 -483.02)"/><path class="cls-235" d="M2532.3,2410.21c-2.09,4.33,54.85,12.56,127.19,18.4s132.67,7,134.77,2.72-54.86-12.57-127.19-18.4S2534.4,2405.88,2532.3,2410.21Z" transform="translate(-181.26 -483.02)"/><path class="cls-236" d="M2537.54,2410.63c-2,4.16,52.66,12.07,122.1,17.66s127.37,6.77,129.38,2.62-52.66-12.07-122.1-17.67S2539.55,2406.47,2537.54,2410.63Z" transform="translate(-181.26 -483.02)"/><path class="cls-237" d="M2542.78,2411.05c-1.92,4,50.47,11.56,117,16.93s122.06,6.49,124,2.5-50.46-11.56-117-16.92S2544.71,2407.07,2542.78,2411.05Z" transform="translate(-181.26 -483.02)"/><path class="cls-238" d="M2548,2411.48c-1.84,3.81,48.27,11.05,111.93,16.19s116.75,6.2,118.59,2.39-48.27-11.06-111.92-16.19S2549.86,2407.67,2548,2411.48Z" transform="translate(-181.26 -483.02)"/><path class="cls-239" d="M2553.26,2411.9c-1.76,3.63,46.07,10.56,106.84,15.45s111.44,5.92,113.2,2.29-46.07-10.56-106.84-15.46S2555,2408.26,2553.26,2411.9Z" transform="translate(-181.26 -483.02)"/><path class="cls-240" d="M2558.5,2412.32c-1.67,3.46,43.88,10,101.75,14.72s106.14,5.64,107.81,2.18-43.88-10.06-101.75-14.72S2560.17,2408.86,2558.5,2412.32Z" transform="translate(-181.26 -483.02)"/><path class="cls-241" d="M2563.74,2412.74c-1.59,3.29,41.69,9.55,96.66,14s100.83,5.35,102.42,2.06-41.68-9.55-96.66-14S2565.33,2409.45,2563.74,2412.74Z" transform="translate(-181.26 -483.02)"/><path class="cls-242" d="M2569,2413.17c-1.51,3.11,39.49,9,91.57,13.24s95.53,5.08,97,2-39.49-9-91.57-13.25S2570.48,2410.05,2569,2413.17Z" transform="translate(-181.26 -483.02)"/><path class="cls-243" d="M2574.22,2413.59c-1.43,2.94,37.29,8.54,86.48,12.51s90.22,4.79,91.64,1.85-37.29-8.55-86.48-12.51S2575.64,2410.64,2574.22,2413.59Z" transform="translate(-181.26 -483.02)"/><path class="cls-244" d="M2579.45,2414c-1.33,2.77,35.11,8,81.4,11.78s84.92,4.51,86.25,1.74-35.1-8.05-81.4-11.78S2580.79,2411.24,2579.45,2414Z" transform="translate(-181.26 -483.02)"/><path class="cls-245" d="M2584.69,2414.43c-1.25,2.6,32.91,7.54,76.32,11s79.6,4.23,80.86,1.64-32.92-7.55-76.31-11S2586,2411.83,2584.69,2414.43Z" transform="translate(-181.26 -483.02)"/><path class="cls-246" d="M2589.93,2414.85c-1.17,2.43,30.72,7,71.23,10.31s74.3,4,75.47,1.52-30.72-7-71.23-10.3S2591.11,2412.43,2589.93,2414.85Z" transform="translate(-181.26 -483.02)"/><path class="cls-247" d="M2595.17,2415.28c-1.09,2.25,28.53,6.53,66.14,9.56s69,3.67,70.08,1.42-28.52-6.54-66.14-9.57S2596.26,2413,2595.17,2415.28Z" transform="translate(-181.26 -483.02)"/><path class="cls-248" d="M2600.41,2415.7c-1,2.08,26.33,6,61.05,8.83s63.68,3.38,64.69,1.31-26.33-6-61.05-8.84S2601.42,2413.62,2600.41,2415.7Z" transform="translate(-181.26 -483.02)"/><path class="cls-249" d="M2605.65,2416.12c-.92,1.91,24.13,5.53,56,8.1s58.38,3.1,59.3,1.19-24.13-5.53-56-8.09S2606.57,2414.22,2605.65,2416.12Z" transform="translate(-181.26 -483.02)"/><path class="cls-250" d="M2610.89,2416.54c-.84,1.74,21.94,5,50.87,7.36s53.07,2.82,53.91,1.09-21.94-5-50.87-7.36S2611.73,2414.81,2610.89,2416.54Z" transform="translate(-181.26 -483.02)"/><path class="cls-251" d="M2616.13,2417c-.75,1.55,19.75,4.52,45.79,6.62s47.76,2.54,48.51,1-19.74-4.52-45.79-6.62S2616.88,2415.41,2616.13,2417Z" transform="translate(-181.26 -483.02)"/><path class="cls-252" d="M2621.37,2417.39c-.67,1.38,17.55,4,40.7,5.89s42.45,2.25,43.12.87-17.55-4-40.7-5.89S2622,2416,2621.37,2417.39Z" transform="translate(-181.26 -483.02)"/><path class="cls-253" d="M2626.61,2417.81c-.59,1.21,15.36,3.52,35.61,5.15s37.15,2,37.74.77-15.36-3.52-35.62-5.16S2627.19,2416.6,2626.61,2417.81Z" transform="translate(-181.26 -483.02)"/><path class="cls-254" d="M2631.85,2418.23c-.51,1,13.16,3,30.52,4.42s31.84,1.69,32.34.65-13.16-3-30.52-4.41S2632.35,2417.19,2631.85,2418.23Z" transform="translate(-181.26 -483.02)"/><path class="cls-255" d="M2637.09,2418.66c-.42.86,11,2.51,25.43,3.68s26.54,1.41,26.95.54-11-2.51-25.43-3.68S2637.5,2417.79,2637.09,2418.66Z" transform="translate(-181.26 -483.02)"/><path class="cls-256" d="M2642.32,2419.08c-.33.69,8.78,2,20.35,2.94s21.23,1.13,21.57.44-8.78-2-20.35-2.95S2642.66,2418.39,2642.32,2419.08Z" transform="translate(-181.26 -483.02)"/><path class="cls-257" d="M2647.56,2419.5c-.25.52,6.58,1.51,15.26,2.21s15.93.84,16.18.33-6.58-1.51-15.26-2.21S2647.81,2419,2647.56,2419.5Z" transform="translate(-181.26 -483.02)"/><path class="cls-258" d="M2652.8,2419.92c-.17.35,4.39,1,10.18,1.48s10.61.56,10.78.21-4.39-1-10.18-1.47S2653,2419.58,2652.8,2419.92Z" transform="translate(-181.26 -483.02)"/><path class="cls-259" d="M2658,2420.34c-.08.18,2.2.51,5.09.74a23.35,23.35,0,0,0,5.39.11c.08-.17-2.19-.5-5.09-.74A24,24,0,0,0,2658,2420.34Z" transform="translate(-181.26 -483.02)"/></g></g><image width="1765" height="1568" transform="translate(2872.74 62.98)" xlink:href="2221.png"/><g class="cls-260"><image width="5867" height="5098" transform="translate(0 121.83) scale(0.24)" xlink:href="2222.png"/></g><image class="cls-261" width="2311" height="1798" transform="translate(1329.74 31.98)" xlink:href="2223.png"/><image class="cls-261" width="2323" height="1610" transform="translate(972.74 15.98)" xlink:href="2224.png"/><path class="cls-262" d="M1585.17,2118.37l1793.71,190.78a43.77,43.77,0,0,0,48.52-43.23l5.81-1737A45.86,45.86,0,0,0,3386.13,483L1576.71,526.33a42.19,42.19,0,0,0-41.29,42.32L1543,2071.88A47.08,47.08,0,0,0,1585.17,2118.37Z" transform="translate(-181.26 -483.02)"/><path class="cls-263" d="M1584.9,2118.37,3369,2309.15a43.62,43.62,0,0,0,48.26-43.23l5.78-1737A45.72,45.72,0,0,0,3376.2,483L1576.49,526.33a42.09,42.09,0,0,0-41.07,42.32l7.49,1503.23A47,47,0,0,0,1584.9,2118.37Z" transform="translate(-181.26 -483.02)"/><path class="cls-264" d="M1543.12,1897.64l1874,166.26,5.94-1535A45.72,45.72,0,0,0,3376.2,483L1576.49,526.33a42.09,42.09,0,0,0-41.07,42.32Z" transform="translate(-181.26 -483.02)"/><image width="1765" height="1403" transform="translate(1407.74 87.98)" xlink:href="img/svg/glamash-lp.png"/><path class="cls-265" d="M3026.61,2271.68s19.68,67.13,8.52,114.62a61.06,61.06,0,0,1-46.82,45.67l-360.6,76.54s-46,14.39-105,5.65l-456-62.28c-8.48-1.89-5-13.52-.24-14.48l446.26-83.1,3.36-.61a63,63,0,0,0,35.81-20.05c10.42-11.68,20.8-29.75,21.83-55.92l0-54.2Z" transform="translate(-181.26 -483.02)"/><path class="cls-266" d="M3002.84,2270s35.87,117.74-20.63,134.74l-354.5,96s-46,14-105,5.5l-456-60.58a4.19,4.19,0,0,1-.24-8.26l446.26-86.66,3.36-.6a63.43,63.43,0,0,0,35.81-19.51c10.42-11.35,20.8-28.93,21.83-54.39l0-52.72Z" transform="translate(-181.26 -483.02)"/></g></g></svg>